<svg xmlns="http://www.w3.org/2000/svg" xml:space="preserve" id="Layer_1" x="0" y="0" version="1.1" viewBox="0 0 32 32"><style>.st0{fill:#1A0F2E;}
	.st1{enable-background:new    ;}
	.st2{fill:#A78BFA;}
	.st3{opacity:0.7;fill:#6D28D9;enable-background:new    ;}</style><path d="M7 0h18c3.9 0 7 3.1 7 7v18c0 3.9-3.1 7-7 7H7c-3.9 0-7-3.1-7-7V7c0-3.9 3.1-7 7-7" class="st0"/><g class="st1"><path d="M17.7 22h-6v-.6c.3 0 .6-.1 1-.2s.6-.2.6-.3v-.1s0-.1-.1-.2l-.9-2.3H8.4c-.1.2-.2.5-.3.8s-.2.5-.3.8-.2.5-.2.6v.3c0 .2.1.3.4.4s.7.2 1.3.3v.5H4.7v-.6c.2 0 .4 0 .6-.1s.4-.1.5-.2c.2-.1.4-.3.6-.4s.3-.4.4-.6c.6-1.5 1.2-2.9 1.8-4.4s1.3-3.1 2-4.9h1.6l2.4 6q.9 2.25 1.5 3.6c.1.2.2.3.3.4s.3.2.4.4c.1.1.3.1.5.2.2 0 .4.1.5.1v.5zm-5.8-4.5-1.6-4-1.6 4zm14.8 4.3c-.2.1-.5.2-.8.3s-.6.1-1 .1c-.6 0-1.1-.1-1.4-.3s-.5-.5-.6-.8l-.5.5c-.2.1-.3.2-.5.3s-.5.2-.7.3-.5.1-1 .1c-.6 0-1.1-.2-1.5-.5s-.6-.8-.6-1.4c0-.3 0-.6.1-.9s.2-.4.4-.6.3-.3.5-.4.4-.2.7-.3c.5-.2 1-.4 1.7-.5.7-.2 1.1-.4 1.4-.5v-1.3c0-.2-.1-.4-.1-.5-.1-.2-.2-.3-.3-.4s-.4-.2-.6-.2-.4 0-.6.1-.3.1-.4.2c0 .1.1.3.1.5.1.2.1.4.1.6 0 .1 0 .2-.1.3s-.1.2-.2.3-.3.2-.4.2h-.8c-.4 0-.8-.1-1-.3s-.3-.5-.3-.8.1-.6.3-.8.5-.4.8-.6.7-.3 1.1-.4.8-.1 1.2-.1c.5 0 1 0 1.4.1s.8.2 1.1.4.6.4.8.8c.2.3.3.8.3 1.4v3.7c0 .2 0 .4.1.6s.2.2.3.3c.1 0 .2.1.4.1h.5v.4zm-3.9-4-.9.3c-.3.1-.5.3-.7.4s-.3.3-.5.6c-.1.2-.2.5-.2.8q0 .6.3.9c.3.3.4.3.7.3s.5-.1.7-.2.3-.3.5-.4z" class="st2"/></g><path d="M6.2 25h19.5c.7 0 1.2.6 1.2 1.2 0 .7-.6 1.2-1.2 1.2H6.2c-.7 0-1.2-.6-1.2-1.2S5.6 25 6.2 25" class="st3"/></svg>